<svg width="345" height="85" viewBox="0 0 345 85" fill="none" xmlns="http://www.w3.org/2000/svg">
<path d="M369 65.1075L351.539 85H341L358.555 65L369 65.1075Z" fill="#00C6FF"/>
<path d="M351 65.1075L332.916 85H322L340.182 65L351 65.1075Z" fill="#00C6FF"/>
<path d="M332 65.1075L314.539 85H304L321.555 65L332 65.1075Z" fill="#00C6FF"/>
<path d="M314 65.1075L295.916 85H285L303.182 65L314 65.1075Z" fill="#00C6FF"/>
<path d="M295 65.1075L276.916 85H266L284.182 65L295 65.1075Z" fill="#00C6FF"/>
<path d="M276 65.1075L258.539 85H248L265.555 65L276 65.1075Z" fill="#00C6FF"/>
<path d="M258 65.1075L239.916 85H229L247.182 65L258 65.1075Z" fill="#00C6FF"/>
<path d="M239 65.1075L221.539 85H211L228.555 65L239 65.1075Z" fill="#00C6FF"/>
<path d="M221 65.1075L202.916 85H192L210.182 65L221 65.1075Z" fill="#00C6FF"/>
<path d="M202 65.1075L183.916 85H173L191.182 65L202 65.1075Z" fill="#00C6FF"/>
<path d="M0 19.8925L18.0843 0H29L10.818 20L0 19.8925Z" fill="#00C6FF"/>
<path d="M19 19.8925L36.4607 0H47L29.4449 20L19 19.8925Z" fill="#00C6FF"/>
<path d="M37 19.8925L55.0843 0H66L47.818 20L37 19.8925Z" fill="#00C6FF"/>
<path d="M56 19.8925L73.4607 0H84L66.4449 20L56 19.8925Z" fill="#00C6FF"/>
<path d="M74 19.8925L92.0843 0H103L84.818 20L74 19.8925Z" fill="#00C6FF"/>
<path d="M93 19.8925L111.084 0H122L103.818 20L93 19.8925Z" fill="#00C6FF"/>
<path d="M112 19.8925L129.461 0H140L122.445 20L112 19.8925Z" fill="#00C6FF"/>
<path d="M130 19.8925L148.084 0H159L140.818 20L130 19.8925Z" fill="#00C6FF"/>
<path d="M149 19.8925L166.461 0H177L159.445 20L149 19.8925Z" fill="#00C6FF"/>
<path d="M167 19.8925L185.084 0H196L177.818 20L167 19.8925Z" fill="#00C6FF"/>
<path d="M186 19.8925L204.084 0H215L196.818 20L186 19.8925Z" fill="#00C6FF"/>
</svg>
