<svg width="729" height="84" viewBox="0 0 729 84" fill="none" xmlns="http://www.w3.org/2000/svg">
<path d="M364.432 0L327.914 38.6587L307.183 60.6467H206.098V64.3832H303.66L293.565 75.0898H13.0081C12.2629 72.0719 9.68841 69.9162 6.63962 69.9162C2.98107 69.9162 0 73.0779 0 76.9581C0 80.8383 2.98107 84 6.63962 84C9.68841 84 12.2629 81.8443 13.0081 78.8263H295.055L365.923 3.73649H729V0H364.432Z" fill="#51D4FF"/>
<path d="M533.335 27.3073H713.553L729 10.9241L548.173 11.5708L533.335 27.3073Z" fill="#51D4FF"/>
<path d="M517.414 11.3544L502.577 27.0909L526.29 26.8753L540.924 11.3544H517.414Z" fill="#51D4FF"/>
<path d="M487.333 11.3544L475.341 24.0729L432.657 24.2885L430.015 27.0909H472.495L496.208 26.8753L510.774 11.3544H487.333Z" fill="#51D4FF"/>
</svg>
